<?xml version="1.0" encoding="utf-8"?>
<svg version="1.1" xmlns="http://www.w3.org/2000/svg" viewBox="0 0 127.14 96.36">
  <path fill="#222222" d="M107.7,8.07c-8.7-3.5-18.1-5.8-27.9-6.8c-1.2,2.1-2.5,4.4-3.4,6.8c-10.2-1.5-20.4-1.5-30.3,0c-0.9-2.4-2.2-4.7-3.4-6.8 c-9.8,1-19.2,3.3-27.9,6.8C1.5,29.7-1.5,51.9,0.5,73.7c11.5,8.5,22.6,13.6,33.5,17.1c2.7-3.7,5.1-7.7,7.1-11.9 c-3.9-1.5-7.6-3.4-11.1-5.6c0.9-0.7,1.8-1.4,2.7-2.1c21.5,10,45.1,10,66.2,0c0.9,0.7,1.8,1.4,2.7,2.1c-3.5,2.2-7.1,4.1-11.1,5.6 c2,4.2,4.4,8.2,7.1,11.9c10.9-3.5,22-8.6,33.5-17.1C128.9,47.7,124.4,25.8,107.7,8.07z M42.4,61.1c-6.4,0-11.7-5.9-11.7-13.1 c0-7.2,5.1-13.1,11.7-13.1c6.6,0,11.9,5.9,11.7,13.1C54.1,55.2,49,61.1,42.4,61.1z M84.7,61.1c-6.4,0-11.7-5.9-11.7-13.1 c0-7.2,5.1-13.1,11.7-13.1c6.6,0,11.9,5.9,11.7,13.1C96.4,55.2,91.3,61.1,84.7,61.1z"/>
</svg>