<?xml version="1.0" encoding="utf-8"?>
<svg version="1.1" xmlns="http://www.w3.org/2000/svg" viewBox="0 0 24 24">
  <path fill="#222222" d="M12,2.1c3.2,0,3.6,0,4.9,0.1c3.1,0.1,4.8,1.7,4.9,4.8c0.1,1.3,0.1,1.6,0.1,4.9s0,3.6-0.1,4.9 c-0.1,3.1-1.7,4.8-4.9,4.9c-1.3,0.1-1.6,0.1-4.9,0.1s-3.6,0-4.9-0.1c-3.1-0.1-4.8-1.7-4.9-4.8c-0.1-1.3-0.1-1.6-0.1-4.9s0-3.6,0.1-4.9 c0.1-3.1,1.7-4.8,4.9-4.9C8.4,2.1,8.8,2.1,12,2.1 M12,0C8.7,0,8.3,0,7,0.1C3.1,0.2,1,2.4,0.8,6.3C0.7,7.6,0.7,8,0.7,11.3 s0,3.7,0.1,5c0.2,3.9,2.3,6.1,6.3,6.3c1.3,0.1,1.7,0.1,5,0.1s3.7,0,5-0.1c3.9-0.2,6.1-2.3,6.3-6.3c0.1-1.3,0.1-1.7,0.1-5 s0-3.7-0.1-5c-0.2-3.9-2.3-6.1-6.3-6.3C15.7,0,15.3,0,12,0L12,0z"/>
  <path fill="#222222" d="M12,5.5c-3.2,0-5.8,2.6-5.8,5.8s2.6,5.8,5.8,5.8s5.8-2.6,5.8-5.8S15.2,5.5,12,5.5z M12,14.9 c-2,0-3.6-1.6-3.6-3.6s1.6-3.6,3.6-3.6s3.6,1.6,3.6,3.6S14,14.9,12,14.9z"/>
  <circle fill="#222222" cx="18.4" cy="5.6" r="1.4"/>
</svg>