<?xml version="1.0" encoding="utf-8"?>
<!-- Generator: Adobe Illustrator 15.1.0, SVG Export Plug-In . SVG Version: 6.00 Build 0)  -->
<!DOCTYPE svg PUBLIC "-//W3C//DTD SVG 1.0//EN" "http://www.w3.org/TR/2001/REC-SVG-20010904/DTD/svg10.dtd">
<svg version="1.0" id="Ebene_1" xmlns="http://www.w3.org/2000/svg" xmlns:xlink="http://www.w3.org/1999/xlink" x="0px" y="0px"
	 width="850.39px" height="850.39px" viewBox="0 0 850.39 850.39" enable-background="new 0 0 850.39 850.39" xml:space="preserve">
<g id="Symbol3">
	<g>
		<g>
			<path d="M494.177,570.939c-3.803,3.822-8.811,5.733-13.814,5.733c-5.008,0-10.012-1.911-13.834-5.733
				c-3.826-3.824-9.404-7.156-16.221-10.191c11.921-8.531,23.019-17.223,33.365-26.151c3.822,2.641,7.332,5.518,10.504,8.691
				C501.821,550.915,501.821,563.312,494.177,570.939z"/>
			<path d="M554.938,309.412c-7.587,12.081-17.087,23.748-28.558,35.14c-0.354,0.354-0.708,0.71-1.066,1.064
				c-9.142-32.145-21.44-64.13-43.789-86.479c-25.031-25.049-57.233-38.115-90.717-36.775
				c-34.036,1.339-68.072,17.362-95.861,45.151c-27.768,27.769-43.811,61.804-45.151,95.841
				c-1.32,33.484,11.747,65.706,36.775,90.736c24.005,23.984,59.145,36.381,93.634,45.762
				c-7.588,10.662-14.742,21.639-21.502,32.932c-0.355,0.61-0.651,1.064-0.867,1.399c-35.514-10.366-71.324-24.853-98.915-52.444
				c-32.834-32.834-49.941-75.421-48.187-119.923c1.715-43.889,21.816-87.208,56.563-121.954
				c72.506-72.506,174.238-76.034,241.877-8.395C531.326,253.619,545.021,281.072,554.938,309.412z"/>
			<path d="M598.392,466.721c-7.625,7.648-20.02,7.648-27.649,0c-3.329-3.329-6.348-7.034-9.046-11.096
				c0.531-0.609,1.063-1.2,1.598-1.813c6.09-6.956,12.317-14.071,26.133-28.321c2.679,5.618,5.635,10.249,8.965,13.581
				C606.021,446.719,606.021,459.096,598.392,466.721z"/>
		</g>
		<path d="M504,621.832c-5.004,0-10.008-1.907-13.826-5.726c-7.637-7.637-7.637-20.017,0-27.653l125.724-125.724
			c7.638-7.633,20.017-7.633,27.653,0c7.637,7.637,7.637,20.016,0,27.652L517.827,616.106
			C514.009,619.923,509.004,621.832,504,621.832z"/>
		<path d="M537.281,655.106c-5.004,0-10.009-1.907-13.827-5.726c-7.637-7.635-7.637-20.016,0-27.652l125.717-125.723
			c7.637-7.633,20.016-7.633,27.653,0c7.637,7.637,7.637,20.017,0,27.653L551.107,649.381
			C547.289,653.197,542.285,655.106,537.281,655.106z"/>
		<path d="M570.558,688.386c-5.004,0-10.008-1.907-13.826-5.726c-7.637-7.636-7.637-20.017,0-27.653l125.72-125.724
			c7.637-7.634,20.017-7.634,27.653,0c7.633,7.637,7.633,20.016,0,27.652L584.384,682.66
			C580.565,686.477,575.562,688.386,570.558,688.386z"/>
		<path d="M648.212,677.278c-5.004,0-10.008-1.909-13.826-5.726c-7.633-7.637-7.633-20.016,0-27.653l36.964-36.964
			c7.638-7.633,20.017-7.633,27.653,0c7.637,7.637,7.637,20.016,0,27.652l-36.964,36.965
			C658.221,675.369,653.217,677.278,648.212,677.278z"/>
	</g>
	<path fill-rule="evenodd" clip-rule="evenodd" d="M757.989,274.076v4.789c-1.282,3.035-2.444,6.109-3.842,9.086
		c-10.543,22.525-23.377,43.731-45.821,55.872c-12.811,6.938-27.592,10.208-41.468,15.195c-12.395,4.475-24.951,8.593-37.092,13.717
		c-14.484,6.109-26.94,15.372-38.115,26.587c-3.249,3.272-6.228,6.286-8.927,9.065c-15.904,16.201-23.414,24.556-29.662,31.672
		c-9.596,10.918-16.235,18.938-45.641,47.89c-12.24,13.736-25.404,26.291-39.319,37.919c-11.845,9.934-24.22,19.175-37.03,27.886
		c-8.416,5.776-17.009,11.294-25.76,16.635c-3.153,1.931-6.149,4.236-8.79,6.819c-11.983,11.667-23.827,23.491-36.007,35.572
		c-1.202-0.827-2.483-1.674-4.139-2.779c-0.591,2.091-1.163,3.806-1.596,5.578c-4.71,19.274-13.381,36.579-27.394,50.631
		c-5.439,5.438-12.357,10.129-19.472,13.066c-0.216,0.098-0.453,0.177-0.69,0.275c-0.453,0.177-0.965,0.355-1.478,0.533
		c-1.064,0.354-2.227,0.708-3.468,1.043c-0.631,0.179-1.281,0.355-1.952,0.514c-1.025,0.256-2.089,0.512-3.193,0.749
		c-0.729,0.157-1.498,0.315-2.266,0.492c-0.394,0.079-0.788,0.158-1.183,0.237c-1.202,0.236-2.443,0.452-3.705,0.688
		c-1.281,0.218-2.582,0.454-3.921,0.67c-1.36,0.218-2.721,0.414-4.12,0.631c-2.345,0.335-4.749,0.67-7.193,0.985
		c-1.971,0.237-3.961,0.474-5.991,0.711c-1.005,0.117-2.01,0.215-3.035,0.335c-1.025,0.098-2.05,0.196-3.075,0.313
		c-1.025,0.1-2.049,0.198-3.074,0.296c-1.025,0.079-2.05,0.178-3.074,0.275c-1.025,0.079-2.05,0.158-3.075,0.258
		c-1.025,0.077-2.05,0.156-3.075,0.235c-7.135,0.514-14.091,0.868-20.378,1.025c-0.906,0.02-1.793,0.039-2.661,0.06
		c-6.129,0.099-11.51-0.04-15.609-0.395c-0.473-0.04-0.906-0.098-1.34-0.139c45.684-19.629,50.098-43.022,61.095-68.309
		c8.869-18.485,30.547-30.526,59.243-33.169c0.414-0.038,0.828-0.177,0.828-0.196c-0.02,0-0.098,0.02-0.256,0.06
		c1.616-2.956,2.364-5.381,3.941-6.977c11.332-11.431,22.862-22.686,34.252-34.075c1.439-1.439,2.562-3.253,3.626-5.006
		c0.513-0.849,1.025-1.695,1.557-2.543c7.174-11.884,14.821-23.374,22.94-34.47c20.517-28.144,43.969-53.822,70.597-77.178
		c14.445-14.642,19.115-20.062,62.157-62.946c2.482-2.483,5.104-5.085,7.864-7.824c8.533-8.476,16.316-17.364,23.215-26.744
		c14.78-20.103,25.424-42.511,30.471-68.151c1.104-5.597,3.095-11.017,4.572-16.535c7.19-26.921,25.363-42.571,51.418-50.098
		c2.603-0.751,5.224-1.42,7.845-1.971c2.618-0.552,5.239-1.006,7.884-1.38c6.108-0.849,12.256-1.203,18.407-1.064
		c0.827,0,1.674,0.039,2.521,0.079c0.02,0,0.02,0,0.02,0c1.066,0.039,2.129,0.098,3.195,0.177c2.125,0.158,4.253,0.354,6.382,0.61
		c1.066,0.12,2.129,0.258,3.195,0.414c0.847,0.119,1.713,0.258,2.56,0.395c0.928,0.158,2.013,0.217,2.74,0.729
		c2.779,1.892,5.439,3.96,8.142,5.953c-2.052,2.069-3.826,4.533-6.171,6.147c-14.288,9.854-28.457,19.906-43.161,29.11
		c-6.917,4.317-8.669,10.169-8.473,17.283c0.632,23.001,17.341,46.178,38.943,54.534c1.99,0.768,3.86,1.182,5.696,1.182
		c2.599,0,5.124-0.828,7.726-2.641c14.643-10.189,29.501-20.043,44.282-30.036c1.616-1.083,3.252-2.167,4.927-2.167
		C755.664,272.263,756.808,272.755,757.989,274.076z"/>
	<g>
		<path d="M43.029,743.726h42.473v13.486H60.284v10.963h21.54v12.671h-21.54v25.648H43.029V743.726z"/>
		<path d="M94.982,806.494v-62.769h28.631c5.31,0,9.367,0.515,12.173,1.542s5.067,2.934,6.788,5.716
			c1.719,2.783,2.579,6.173,2.579,10.168c0,3.483-0.658,6.488-1.973,9.013c-1.316,2.525-3.125,4.575-5.427,6.144
			c-1.466,1.001-3.478,1.829-6.032,2.485c2.046,0.771,3.536,1.543,4.471,2.313c0.631,0.514,1.547,1.614,2.749,3.3
			c1.199,1.687,2.001,2.987,2.406,3.899l8.32,18.188h-19.412l-9.182-19.182c-1.163-2.482-2.2-4.095-3.11-4.838
			c-1.239-0.97-2.643-1.455-4.209-1.455h-1.517v25.475H94.982z M112.237,769.16h7.242c0.784,0,2.302-0.285,4.552-0.858
			c1.138-0.256,2.067-0.912,2.787-1.969s1.082-2.27,1.082-3.64c0-2.026-0.57-3.582-1.707-4.667
			c-1.138-1.084-3.274-1.627-6.409-1.627h-7.546V769.16z"/>
		<path d="M155.127,743.726h46.037v13.401h-28.821v9.978h26.735v12.803h-26.735v12.371h29.656v14.216h-46.872V743.726z"/>
		<path d="M211.934,743.726h17.218v62.769h-17.218V743.726z"/>
		<path d="M241.438,743.726h46.037v13.401h-28.821v9.978h26.735v12.803h-26.735v12.371h29.657v14.216h-46.873V743.726z"/>
		<path d="M323.273,743.726h22.593l8.711,38.192l8.651-38.192h22.578v62.769h-14.069v-47.869l-10.839,47.869h-12.735l-10.82-47.869
			v47.869h-14.069V743.726z"/>
		<path d="M430.945,796.134h-19.501l-2.71,10.36h-17.541l20.896-62.769h18.737l20.89,62.769h-17.987L430.945,796.134z
			 M427.385,782.56l-6.138-22.564l-6.072,22.564H427.385z"/>
		<path d="M457.255,743.726h17.18v23.722l17.991-23.722h22.849l-20.285,23.692l21.198,39.076h-21.156l-11.725-25.813l-8.872,10.497
			v15.316h-17.18V743.726z"/>
		<path d="M521.834,743.726h46.037v13.401h-28.819v9.978h26.732v12.803h-26.732v12.371h29.654v14.216h-46.872V743.726z"/>
		<path d="M578.187,806.494v-62.769h28.631c5.313,0,9.369,0.515,12.175,1.542c2.807,1.027,5.07,2.934,6.787,5.716
			c1.721,2.783,2.578,6.173,2.578,10.168c0,3.483-0.658,6.488-1.971,9.013c-1.316,2.525-3.125,4.575-5.427,6.144
			c-1.467,1.001-3.48,1.829-6.032,2.485c2.044,0.771,3.534,1.543,4.469,2.313c0.632,0.514,1.548,1.614,2.749,3.3
			c1.2,1.687,2.001,2.987,2.405,3.899l8.322,18.188h-19.412l-9.184-19.182c-1.163-2.482-2.198-4.095-3.11-4.838
			c-1.239-0.97-2.641-1.455-4.207-1.455h-1.517v25.475H578.187z M595.443,769.16h7.24c0.785,0,2.302-0.285,4.554-0.858
			c1.136-0.256,2.066-0.912,2.787-1.969c0.72-1.057,1.081-2.27,1.081-3.64c0-2.026-0.569-3.582-1.709-4.667
			c-1.136-1.084-3.271-1.627-6.409-1.627h-7.544V769.16z"/>
		<path d="M707.956,788.083h-30.943c0.276,2.798,0.946,4.881,2.009,6.251c1.49,1.971,3.438,2.956,5.84,2.956
			c1.517,0,2.96-0.429,4.322-1.285c0.835-0.543,1.732-1.498,2.694-2.868l15.205,1.582c-2.325,4.569-5.132,7.845-8.419,9.827
			c-3.287,1.984-8.002,2.976-14.146,2.976c-5.331,0-9.531-0.849-12.587-2.548c-3.061-1.698-5.597-4.395-7.606-8.092
			c-2.009-3.695-3.014-8.041-3.014-13.037c0-7.107,2.017-12.86,6.047-17.256c4.034-4.395,9.604-6.594,16.706-6.594
			c5.766,0,10.315,0.985,13.653,2.956c3.337,1.969,5.878,4.823,7.621,8.563c1.744,3.739,2.617,8.605,2.617,14.601V788.083z
			 M692.256,779.733c-0.305-3.368-1.105-5.779-2.406-7.236c-1.305-1.455-3.018-2.183-5.139-2.183c-2.452,0-4.415,1.1-5.878,3.297
			c-0.936,1.37-1.532,3.412-1.782,6.122H692.256z"/>
		<path d="M715.085,789.025h16.498v17.469h-16.498V789.025z"/>
		<path d="M736.476,743.726h17.957l12.514,45.171l12.353-45.171h17.433l-20.64,62.769h-18.623L736.476,743.726z"/>
		<path d="M791.424,789.025h16.494v17.469h-16.494V789.025z"/>
	</g>
	<path d="M245.577,223.712c-1.43,0-2.859-0.545-3.95-1.636l-91.385-91.389c-2.182-2.182-2.182-5.72,0-7.9
		c2.183-2.181,5.718-2.183,7.901,0l91.385,91.389c2.182,2.181,2.182,5.718,0,7.901C248.436,223.166,247.006,223.712,245.577,223.712
		z"/>
	<path d="M372.203,159.459c-3.085,0-5.586-2.502-5.586-5.587V35.331c0-3.085,2.501-5.585,5.586-5.585c3.085,0,5.586,2.5,5.586,5.585
		v118.541C377.79,156.957,375.289,159.459,372.203,159.459z"/>
	<path d="M530.91,215.334c-1.428,0-2.859-0.544-3.949-1.636c-2.183-2.183-2.183-5.72,0-7.901l70.715-70.712
		c2.179-2.181,5.72-2.183,7.902,0c2.179,2.181,2.179,5.718-0.004,7.9l-70.715,70.713
		C533.771,214.788,532.343,215.334,530.91,215.334z"/>
	<path d="M181.321,350.335H66.589c-3.085,0-5.586-2.502-5.586-5.587s2.501-5.585,5.586-5.585h114.732c3.085,0,5.586,2.5,5.586,5.585
		S184.406,350.335,181.321,350.335z"/>
	<path d="M170.287,575.955c-1.43,0-2.859-0.547-3.95-1.638c-2.182-2.181-2.182-5.719,0-7.901l66.908-66.905
		c2.183-2.179,5.718-2.181,7.9,0.002c2.182,2.181,2.182,5.718,0,7.9l-66.908,66.905
		C173.146,575.408,171.717,575.955,170.287,575.955z"/>
</g>
</svg>
