<?xml version="1.0" encoding="UTF-8" standalone="no"?>
<!-- Generator: Adobe Illustrator 15.1.0, SVG Export Plug-In . SVG Version: 6.00 Build 0)  -->

<svg
   xmlns:dc="http://purl.org/dc/elements/1.1/"
   xmlns:cc="http://creativecommons.org/ns#"
   xmlns:rdf="http://www.w3.org/1999/02/22-rdf-syntax-ns#"
   xmlns:svg="http://www.w3.org/2000/svg"
   xmlns="http://www.w3.org/2000/svg"
   xmlns:sodipodi="http://sodipodi.sourceforge.net/DTD/sodipodi-0.dtd"
   xmlns:inkscape="http://www.inkscape.org/namespaces/inkscape"
   version="1.0"
   id="Ebene_1"
   x="0px"
   y="0px"
   width="696.98602"
   height="659.88611"
   viewBox="0 0 696.98601 659.8861"
   enable-background="new 0 0 850.39 850.39"
   xml:space="preserve"
   inkscape:version="0.48.4 r9939"
   sodipodi:docname="FreieMakerSymbol3.svg"><metadata
     id="metadata68"><rdf:RDF><cc:Work
         rdf:about=""><dc:format>image/svg+xml</dc:format><dc:type
           rdf:resource="http://purl.org/dc/dcmitype/StillImage" /><dc:title></dc:title></cc:Work></rdf:RDF></metadata><defs
     id="defs66" /><sodipodi:namedview
     pagecolor="#ffffff"
     bordercolor="#666666"
     borderopacity="1"
     objecttolerance="10"
     gridtolerance="10"
     guidetolerance="10"
     inkscape:pageopacity="0"
     inkscape:pageshadow="2"
     inkscape:window-width="640"
     inkscape:window-height="480"
     id="namedview64"
     showgrid="false"
     fit-margin-top="0"
     fit-margin-left="0"
     fit-margin-right="0"
     fit-margin-bottom="0"
     inkscape:zoom="0.27751972"
     inkscape:cx="364.19201"
     inkscape:cy="264.43709"
     inkscape:window-x="0"
     inkscape:window-y="276"
     inkscape:window-maximized="0"
     inkscape:current-layer="Ebene_1" /><g
     id="Symbol3"
     transform="translate(-61.003,-29.746)"><g
       id="g4"><g
         id="g6"><path
           d="m 494.177,570.939 c -3.803,3.822 -8.811,5.733 -13.814,5.733 -5.008,0 -10.012,-1.911 -13.834,-5.733 -3.826,-3.824 -9.404,-7.156 -16.221,-10.191 11.921,-8.531 23.019,-17.223 33.365,-26.151 3.822,2.641 7.332,5.518 10.504,8.691 7.644,7.627 7.644,20.024 0,27.651 z"
           id="path8"
           inkscape:connector-curvature="0" /><path
           d="m 554.938,309.412 c -7.587,12.081 -17.087,23.748 -28.558,35.14 -0.354,0.354 -0.708,0.71 -1.066,1.064 -9.142,-32.145 -21.44,-64.13 -43.789,-86.479 -25.031,-25.049 -57.233,-38.115 -90.717,-36.775 -34.036,1.339 -68.072,17.362 -95.861,45.151 -27.768,27.769 -43.811,61.804 -45.151,95.841 -1.32,33.484 11.747,65.706 36.775,90.736 24.005,23.984 59.145,36.381 93.634,45.762 -7.588,10.662 -14.742,21.639 -21.502,32.932 -0.355,0.61 -0.651,1.064 -0.867,1.399 -35.514,-10.366 -71.324,-24.853 -98.915,-52.444 -32.834,-32.834 -49.941,-75.421 -48.187,-119.923 1.715,-43.889 21.816,-87.208 56.563,-121.954 72.506,-72.506 174.238,-76.034 241.877,-8.395 22.152,22.152 35.847,49.605 45.764,77.945 z"
           id="path10"
           inkscape:connector-curvature="0" /><path
           d="m 598.392,466.721 c -7.625,7.648 -20.02,7.648 -27.649,0 -3.329,-3.329 -6.348,-7.034 -9.046,-11.096 0.531,-0.609 1.063,-1.2 1.598,-1.813 6.09,-6.956 12.317,-14.071 26.133,-28.321 2.679,5.618 5.635,10.249 8.965,13.581 7.628,7.647 7.628,20.024 -10e-4,27.649 z"
           id="path12"
           inkscape:connector-curvature="0" /></g><path
         d="m 504,621.832 c -5.004,0 -10.008,-1.907 -13.826,-5.726 -7.637,-7.637 -7.637,-20.017 0,-27.653 L 615.898,462.729 c 7.638,-7.633 20.017,-7.633 27.653,0 7.637,7.637 7.637,20.016 0,27.652 L 517.827,616.106 c -3.818,3.817 -8.823,5.726 -13.827,5.726 z"
         id="path14"
         inkscape:connector-curvature="0" /><path
         d="m 537.281,655.106 c -5.004,0 -10.009,-1.907 -13.827,-5.726 -7.637,-7.635 -7.637,-20.016 0,-27.652 L 649.171,496.005 c 7.637,-7.633 20.016,-7.633 27.653,0 7.637,7.637 7.637,20.017 0,27.653 L 551.107,649.381 c -3.818,3.816 -8.822,5.725 -13.826,5.725 z"
         id="path16"
         inkscape:connector-curvature="0" /><path
         d="m 570.558,688.386 c -5.004,0 -10.008,-1.907 -13.826,-5.726 -7.637,-7.636 -7.637,-20.017 0,-27.653 l 125.72,-125.724 c 7.637,-7.634 20.017,-7.634 27.653,0 7.633,7.637 7.633,20.016 0,27.652 L 584.384,682.66 c -3.819,3.817 -8.822,5.726 -13.826,5.726 z"
         id="path18"
         inkscape:connector-curvature="0" /><path
         d="m 648.212,677.278 c -5.004,0 -10.008,-1.909 -13.826,-5.726 -7.633,-7.637 -7.633,-20.016 0,-27.653 l 36.964,-36.964 c 7.638,-7.633 20.017,-7.633 27.653,0 7.637,7.637 7.637,20.016 0,27.652 l -36.964,36.965 c -3.818,3.817 -8.822,5.726 -13.827,5.726 z"
         id="path20"
         inkscape:connector-curvature="0" /></g><path
       clip-rule="evenodd"
       d="m 757.989,274.076 v 4.789 c -1.282,3.035 -2.444,6.109 -3.842,9.086 -10.543,22.525 -23.377,43.731 -45.821,55.872 -12.811,6.938 -27.592,10.208 -41.468,15.195 -12.395,4.475 -24.951,8.593 -37.092,13.717 -14.484,6.109 -26.94,15.372 -38.115,26.587 -3.249,3.272 -6.228,6.286 -8.927,9.065 -15.904,16.201 -23.414,24.556 -29.662,31.672 -9.596,10.918 -16.235,18.938 -45.641,47.89 -12.24,13.736 -25.404,26.291 -39.319,37.919 -11.845,9.934 -24.22,19.175 -37.03,27.886 -8.416,5.776 -17.009,11.294 -25.76,16.635 -3.153,1.931 -6.149,4.236 -8.79,6.819 -11.983,11.667 -23.827,23.491 -36.007,35.572 -1.202,-0.827 -2.483,-1.674 -4.139,-2.779 -0.591,2.091 -1.163,3.806 -1.596,5.578 -4.71,19.274 -13.381,36.579 -27.394,50.631 -5.439,5.438 -12.357,10.129 -19.472,13.066 -0.216,0.098 -0.453,0.177 -0.69,0.275 -0.453,0.177 -0.965,0.355 -1.478,0.533 -1.064,0.354 -2.227,0.708 -3.468,1.043 -0.631,0.179 -1.281,0.355 -1.952,0.514 -1.025,0.256 -2.089,0.512 -3.193,0.749 -0.729,0.157 -1.498,0.315 -2.266,0.492 -0.394,0.079 -0.788,0.158 -1.183,0.237 -1.202,0.236 -2.443,0.452 -3.705,0.688 -1.281,0.218 -2.582,0.454 -3.921,0.67 -1.36,0.218 -2.721,0.414 -4.12,0.631 -2.345,0.335 -4.749,0.67 -7.193,0.985 -1.971,0.237 -3.961,0.474 -5.991,0.711 -1.005,0.117 -2.01,0.215 -3.035,0.335 -1.025,0.098 -2.05,0.196 -3.075,0.313 -1.025,0.1 -2.049,0.198 -3.074,0.296 -1.025,0.079 -2.05,0.178 -3.074,0.275 -1.025,0.079 -2.05,0.158 -3.075,0.258 -1.025,0.077 -2.05,0.156 -3.075,0.235 -7.135,0.514 -14.091,0.868 -20.378,1.025 -0.906,0.02 -1.793,0.039 -2.661,0.06 -6.129,0.099 -11.51,-0.04 -15.609,-0.395 -0.473,-0.04 -0.906,-0.098 -1.34,-0.139 45.684,-19.629 50.098,-43.022 61.095,-68.309 8.869,-18.485 30.547,-30.526 59.243,-33.169 0.414,-0.038 0.828,-0.177 0.828,-0.196 -0.02,0 -0.098,0.02 -0.256,0.06 1.616,-2.956 2.364,-5.381 3.941,-6.977 11.332,-11.431 22.862,-22.686 34.252,-34.075 1.439,-1.439 2.562,-3.253 3.626,-5.006 0.513,-0.849 1.025,-1.695 1.557,-2.543 7.174,-11.884 14.821,-23.374 22.94,-34.47 20.517,-28.144 43.969,-53.822 70.597,-77.178 14.445,-14.642 19.115,-20.062 62.157,-62.946 2.482,-2.483 5.104,-5.085 7.864,-7.824 8.533,-8.476 16.316,-17.364 23.215,-26.744 14.78,-20.103 25.424,-42.511 30.471,-68.151 1.104,-5.597 3.095,-11.017 4.572,-16.535 7.19,-26.921 25.363,-42.571 51.418,-50.098 2.603,-0.751 5.224,-1.42 7.845,-1.971 2.618,-0.552 5.239,-1.006 7.884,-1.38 6.108,-0.849 12.256,-1.203 18.407,-1.064 0.827,0 1.674,0.039 2.521,0.079 0.02,0 0.02,0 0.02,0 1.066,0.039 2.129,0.098 3.195,0.177 2.125,0.158 4.253,0.354 6.382,0.61 1.066,0.12 2.129,0.258 3.195,0.414 0.847,0.119 1.713,0.258 2.56,0.395 0.928,0.158 2.013,0.217 2.74,0.729 2.779,1.892 5.439,3.96 8.142,5.953 -2.052,2.069 -3.826,4.533 -6.171,6.147 -14.288,9.854 -28.457,19.906 -43.161,29.11 -6.917,4.317 -8.669,10.169 -8.473,17.283 0.632,23.001 17.341,46.178 38.943,54.534 1.99,0.768 3.86,1.182 5.696,1.182 2.599,0 5.124,-0.828 7.726,-2.641 14.643,-10.189 29.501,-20.043 44.282,-30.036 1.616,-1.083 3.252,-2.167 4.927,-2.167 1.126,0.003 2.27,0.495 3.451,1.816 z"
       id="path22"
       inkscape:connector-curvature="0"
       style="fill-rule:evenodd" /><path
       d="m 245.577,223.712 c -1.43,0 -2.859,-0.545 -3.95,-1.636 l -91.385,-91.389 c -2.182,-2.182 -2.182,-5.72 0,-7.9 2.183,-2.181 5.718,-2.183 7.901,0 l 91.385,91.389 c 2.182,2.181 2.182,5.718 0,7.901 -1.092,1.089 -2.522,1.635 -3.951,1.635 z"
       id="path54"
       inkscape:connector-curvature="0" /><path
       d="m 372.203,159.459 c -3.085,0 -5.586,-2.502 -5.586,-5.587 V 35.331 c 0,-3.085 2.501,-5.585 5.586,-5.585 3.085,0 5.586,2.5 5.586,5.585 v 118.541 c 0.001,3.085 -2.5,5.587 -5.586,5.587 z"
       id="path56"
       inkscape:connector-curvature="0" /><path
       d="m 530.91,215.334 c -1.428,0 -2.859,-0.544 -3.949,-1.636 -2.183,-2.183 -2.183,-5.72 0,-7.901 l 70.715,-70.712 c 2.179,-2.181 5.72,-2.183 7.902,0 2.179,2.181 2.179,5.718 -0.004,7.9 l -70.715,70.713 c -1.088,1.09 -2.516,1.636 -3.949,1.636 z"
       id="path58"
       inkscape:connector-curvature="0" /><path
       d="M 181.321,350.335 H 66.589 c -3.085,0 -5.586,-2.502 -5.586,-5.587 0,-3.085 2.501,-5.585 5.586,-5.585 h 114.732 c 3.085,0 5.586,2.5 5.586,5.585 0,3.085 -2.501,5.587 -5.586,5.587 z"
       id="path60"
       inkscape:connector-curvature="0" /><path
       d="m 170.287,575.955 c -1.43,0 -2.859,-0.547 -3.95,-1.638 -2.182,-2.181 -2.182,-5.719 0,-7.901 l 66.908,-66.905 c 2.183,-2.179 5.718,-2.181 7.9,0.002 2.182,2.181 2.182,5.718 0,7.9 l -66.908,66.905 c -1.091,1.09 -2.52,1.637 -3.95,1.637 z"
       id="path62"
       inkscape:connector-curvature="0" /></g></svg>